<?xml version="1.0" encoding="utf-8"?>
<!-- Generator: Adobe Illustrator 15.0.0, SVG Export Plug-In . SVG Version: 6.00 Build 0)  -->
<!DOCTYPE svg PUBLIC "-//W3C//DTD SVG 1.1//EN" "http://www.w3.org/Graphics/SVG/1.1/DTD/svg11.dtd">
<svg version="1.1" id="svg" xmlns="http://www.w3.org/2000/svg" xmlns:xlink="http://www.w3.org/1999/xlink" x="0px" y="0px"
	 width="304.349px" height="46.725px" viewBox="48.136 263.27 304.349 46.725"
	 enable-background="new 48.136 263.27 304.349 46.725" xml:space="preserve">
<path id="path1" fill="#F26B3A" d="M48.839,263.957c-0.811,0.474-0.985,43.886-0.178,44.521c1.303,1.026,4.956,0.706,5.409-0.476
	c0.119-0.309,0.216-4.084,0.216-8.389v-7.828h5c3.095,0,5-0.136,5-0.356c0-0.197,0.411-0.358,0.913-0.358
	c1.297,0,4.087-0.743,4.087-1.089c0-0.16,0.359-0.405,0.799-0.545c5.711-1.812,7.468-17.22,2.515-22.054
	c-1.331-1.298-2.404-2.054-3.202-2.254c-0.454-0.113-0.827-0.329-0.827-0.477C68.571,263.685,50.408,263.044,48.839,263.957
	 M102.321,263.944c-3.381,0.698-7.38,3.457-7.869,5.431c-0.134,0.54-0.374,0.982-0.533,0.982c-1.013,0-1.615,25.559-0.713,30.312
	c0.391,2.066,2.57,5.761,3.397,5.761c0.297,0,0.54,0.141,0.54,0.313s0.911,0.776,2.025,1.339c4.195,2.124,14.05,1.251,16.788-1.486
	c0.288-0.288,0.673-0.524,0.855-0.524c0.183,0,0.332-0.216,0.332-0.48c0-0.264,0.321-0.771,0.714-1.127
	c0.393-0.354,0.715-0.821,0.717-1.037c0.001-0.215,0.282-0.872,0.625-1.463c0.766-1.317,0.974-29.624,0.221-30.102
	c-0.221-0.14-0.517-0.785-0.657-1.432c-0.341-1.571-3.596-4.901-5.117-5.235c-0.63-0.138-1.146-0.383-1.146-0.544
	C112.5,263.827,105.309,263.328,102.321,263.944 M147.5,263.831c-5.783,1.049-9.107,5.35-9.107,11.78
	c0,2.29,0.149,3.798,0.391,3.956c0.216,0.14,0.491,0.656,0.613,1.146c0.217,0.879,3.091,4.286,3.615,4.286
	c0.147,0,0.671,0.317,1.164,0.705c0.493,0.388,1.443,0.808,2.11,0.934c0.668,0.125,1.214,0.345,1.214,0.487
	c0,0.145,0.683,0.459,1.518,0.702c4.346,1.262,7.982,3.794,8.794,6.125c3.218,9.231-8.208,14.058-15.5,6.549
	c-2.971-3.06-6.73,0.326-4.473,4.029c0.382,0.626,1.064,1.333,1.517,1.571c0.452,0.237,0.903,0.549,1.001,0.69
	c0.514,0.742,4.119,2.207,5.876,2.389c1.101,0.113,2.087,0.345,2.191,0.513c0.267,0.432,4.433,0.384,4.433-0.051
	c0-0.197,0.491-0.357,1.092-0.357c1.405,0,4.265-0.718,4.265-1.071c0-0.148,0.488-0.473,1.084-0.72
	c1.527-0.632,3.846-3.397,4.308-5.136c0.214-0.806,0.535-1.745,0.713-2.086c0.418-0.8,0.424-6.955,0.007-7.212
	c-0.174-0.108-0.426-0.801-0.56-1.539c-0.548-3.017-5.323-7.895-7.795-7.963c-0.239-0.006-1.078-0.322-1.864-0.702
	c-0.786-0.379-1.558-0.695-1.716-0.702c-0.158-0.007-1.042-0.352-1.964-0.767c-6.2-2.792-7.846-7.042-4.098-10.585
	c1.866-1.764,8.27-2.044,11.598-0.507c3.161,1.46,5.099,0.78,5.541-1.942C164.023,264.934,155.198,262.434,147.5,263.831
	 M179.427,264.472c-0.743,1.133-0.484,3.584,0.453,4.294c0.489,0.37,1.992,0.5,5.924,0.508l5.267,0.012v19.615v19.615l1.228,0.404
	c0.677,0.225,1.803,0.298,2.509,0.165c2.422-0.454,2.335,0.322,2.335-20.772v-19.027l4.912-0.012
	c3.625-0.008,5.082-0.142,5.565-0.508c0.937-0.71,1.196-3.161,0.453-4.294l-0.589-0.901H193.75h-13.734L179.427,264.472
	 M225.755,264.245c-0.774,0.775-1.235,42.698-0.481,43.827c0.422,0.631,1.746,1.214,2.763,1.214c1.015,0,2.34-0.583,2.762-1.214
	c0.144-0.217,0.265-7.354,0.269-15.861c0.002-8.507,0.138-15.386,0.299-15.286c0.162,0.101,0.509,0.833,0.771,1.629
	c0.264,0.796,0.6,1.446,0.75,1.446c0.148,0,0.379,0.493,0.512,1.097c0.133,0.602,0.443,1.173,0.691,1.268s0.66,0.808,0.916,1.583
	c0.256,0.776,0.568,1.41,0.694,1.41c0.125,0,0.444,0.603,0.707,1.339c0.264,0.737,0.577,1.42,0.696,1.518
	c0.121,0.1,0.684,1.144,1.254,2.322c1.438,2.977,1.865,3.394,3.492,3.394c1.375,0,3.508-2.322,3.508-3.82
	c0-0.257,0.154-0.466,0.343-0.466s0.534-0.644,0.771-1.43c0.235-0.784,0.553-1.428,0.705-1.428c0.153,0,0.481-0.562,0.73-1.25
	c0.248-0.688,0.568-1.25,0.709-1.25c0.142,0,0.443-0.562,0.671-1.25s0.548-1.25,0.713-1.25c0.166,0,0.407-0.48,0.536-1.068
	c0.129-0.587,0.398-1.169,0.6-1.293c0.202-0.125,0.631-0.81,0.955-1.521c0.559-1.23,0.594-0.493,0.682,14.578
	c0.104,17.752-0.133,16.434,2.961,16.441c3.058,0.01,2.838,1.744,2.838-22.558v-21.706l-0.898-0.589
	c-2.318-1.52-5.096-0.072-6.958,3.622c-0.491,0.975-0.973,1.853-1.071,1.951c-0.098,0.098-1.062,1.945-2.143,4.106
	s-2.045,4.009-2.145,4.107c-0.099,0.098-0.901,1.571-1.783,3.274c-1.736,3.354-2.104,3.49-2.891,1.072
	c-0.236-0.721-0.545-1.391-0.688-1.49c-0.143-0.098-1.777-3.15-3.631-6.785c-5.11-10.015-5.137-10.048-7.938-10.279
	C226.823,263.516,226.387,263.613,225.755,264.245 M288.775,264.407c-0.506,0.505-0.918,1.214-0.918,1.577
	c0,0.362-0.164,0.822-0.363,1.021c-0.2,0.2-0.539,1.357-0.753,2.572c-0.214,1.214-0.532,2.208-0.708,2.208s-0.319,0.24-0.319,0.534
	s-0.307,1.459-0.682,2.589c-0.375,1.131-1.116,3.502-1.646,5.271c-0.529,1.767-1.177,3.856-1.437,4.642
	c-0.261,0.786-0.904,2.875-1.429,4.643c-0.524,1.769-1.16,3.697-1.41,4.286s-0.569,1.714-0.709,2.5
	c-0.139,0.786-0.377,1.589-0.53,1.786c-0.153,0.196-0.481,1.241-0.729,2.321c-0.248,1.081-0.586,2.136-0.75,2.346
	c-1.416,1.8-1.141,5.637,0.444,6.19c2.961,1.031,4.32,0.258,4.798-2.732c0.133-0.835,0.36-1.518,0.506-1.518
	c0.144,0,0.469-1.005,0.721-2.232c0.683-3.317,0.147-3.125,8.732-3.125h7.578l0.438,1.958c0.242,1.077,0.574,2.041,0.738,2.144
	c0.166,0.102,0.407,0.966,0.538,1.92c0.487,3.543,2.116,4.72,5.011,3.619c1.591-0.604,2.945-3.213,1.67-3.213
	c-0.161,0-0.5-1.046-0.754-2.323c-0.255-1.279-0.595-2.407-0.757-2.508c-0.161-0.099-0.482-1.102-0.714-2.229
	c-0.23-1.126-0.542-2.208-0.691-2.404c-0.148-0.195-0.477-1.241-0.728-2.32c-0.25-1.081-0.562-2.046-0.692-2.144
	s-0.447-1.143-0.703-2.322c-0.256-1.178-0.582-2.303-0.727-2.5c-0.144-0.195-0.462-1.159-0.707-2.143
	c-0.244-0.982-0.585-2.107-0.755-2.5c-0.17-0.392-0.491-1.438-0.716-2.321s-0.531-1.768-0.684-1.964
	c-0.15-0.197-0.387-0.977-0.523-1.735c-0.137-0.757-0.424-1.802-0.641-2.32c-0.215-0.52-0.668-1.909-1.008-3.087
	c-0.34-1.18-0.869-3.015-1.176-4.078C294.65,263.557,290.938,262.245,288.775,264.407 M325.268,263.957
	c-0.812,0.474-0.985,43.886-0.179,44.521c1.47,1.157,5.025,0.688,5.401-0.713c0.118-0.44,0.217-7.189,0.219-14.997
	c0.005-13.848,0.155-15.702,1.035-12.769c0.234,0.786,0.568,1.43,0.742,1.43c0.173,0,0.421,0.482,0.551,1.074
	c0.129,0.592,0.423,1.274,0.653,1.519c0.229,0.243,0.979,1.606,1.667,3.029s1.357,2.589,1.489,2.59
	c0.131,0.001,0.346,0.485,0.476,1.076c0.13,0.592,0.424,1.274,0.653,1.519c0.229,0.243,1.344,2.291,2.476,4.55
	c5.931,11.837,6.232,12.257,8.851,12.295c3.384,0.049,3.184,1.494,3.18-22.831c-0.005-23.965,0.21-22.337-2.979-22.601
	c-3.385-0.281-3.224-1.036-3.432,16.054l-0.179,14.68l-3.021-6.03c-1.662-3.317-3.117-6.111-3.235-6.209
	c-0.117-0.099-0.436-0.741-0.708-1.43c-0.272-0.687-0.585-1.33-0.693-1.428c-0.11-0.098-1.722-3.232-3.58-6.965
	C330.402,263.788,328.488,262.082,325.268,263.957 M65.251,269.722c5.557,2.426,6.002,12.545,0.686,15.629
	c-1.322,0.767-1.992,0.869-6.562,0.999l-5.089,0.146v-8.604v-8.605h4.983C62.409,269.286,64.622,269.447,65.251,269.722
	 M110.947,270.562c0.973,0.686,1.638,1.506,1.933,2.384c0.247,0.737,0.584,1.34,0.749,1.34c0.763,0,0.339,23.711-0.454,25.379
	c-2.393,5.032-9.494,5.959-12.884,1.682l-1.184-1.494l-0.112-11.98c-0.134-14.328-0.124-14.424,1.733-16.415
	C103.106,268.908,107.991,268.48,110.947,270.562 M292.525,276.786c0.244,1.375,0.563,2.5,0.707,2.5s0.47,1.044,0.723,2.321
	c0.254,1.276,0.572,2.322,0.707,2.322s0.441,1.004,0.682,2.231c0.241,1.228,0.565,2.394,0.721,2.589
	c0.156,0.196,0.49,1.289,0.742,2.427c0.252,1.139,0.59,2.152,0.754,2.254c1.061,0.654-0.334,0.855-5.953,0.855
	c-3.438,0-6.25-0.09-6.25-0.199c0-0.541,0.852-3.596,1.09-3.907c0.148-0.197,0.468-1.362,0.709-2.591
	c0.24-1.227,0.559-2.231,0.707-2.231s0.468-1.044,0.707-2.321c0.242-1.277,0.572-2.322,0.734-2.322c0.161,0,0.403-0.725,0.536-1.61
	c0.134-0.888,0.37-1.691,0.526-1.788c0.156-0.098,0.394-0.818,0.525-1.604C291.275,273.446,292.016,273.932,292.525,276.786"/>
</svg>
